<svg width="61" height="61" viewBox="0 0 61 61" fill="none" xmlns="http://www.w3.org/2000/svg">
<path d="M61 30.5C61 47.3447 47.3447 61 30.5 61C13.6553 61 0 47.3447 0 30.5C0 13.6553 13.6553 0 30.5 0C47.3447 0 61 13.6553 61 30.5Z" fill="#FFB480"/>
<path fill-rule="evenodd" clip-rule="evenodd" d="M27.4885 4.81398C27.5913 5.63601 27.0082 6.3857 26.1861 6.48845C22.5929 6.93761 17.5111 9.61038 14.0607 13.0607C13.475 13.6465 12.5252 13.6465 11.9394 13.0607C11.3536 12.4749 11.3536 11.5252 11.9394 10.9394C15.7408 7.13801 21.4073 4.06246 25.814 3.51162C26.6361 3.40887 27.3858 3.99195 27.4885 4.81398ZM10.9001 15.3C11.5628 15.7971 11.6971 16.7373 11.2001 17.4L9.70009 19.4C9.20303 20.0628 8.26283 20.1971 7.60009 19.7C6.93735 19.203 6.80303 18.2628 7.30009 17.6L8.80009 15.6C9.29714 14.9373 10.2373 14.803 10.9001 15.3Z" fill="white"/>
<path d="M19 41C19 43.7614 16.7614 46 14 46C11.2386 46 9 43.7614 9 41C9 38.2386 11.2386 36 14 36C16.7614 36 19 38.2386 19 41Z" fill="#FF8B80"/>
<path d="M52 41C52 43.7614 49.7614 46 47 46C44.2386 46 42 43.7614 42 41C42 38.2386 44.2386 36 47 36C49.7614 36 52 38.2386 52 41Z" fill="#FF8B80"/>
<path fill-rule="evenodd" clip-rule="evenodd" d="M21.5 19.9333C17.9863 19.9333 15.0714 22.6163 15.0714 26C15.0714 29.3837 17.9863 32.0667 21.5 32.0667C25.0137 32.0667 27.9286 29.3837 27.9286 26C27.9286 22.6163 25.0137 19.9333 21.5 19.9333ZM14 26C14 22.1672 17.3212 19 21.5 19C25.6788 19 29 22.1672 29 26C29 29.8328 25.6788 33 21.5 33C17.3212 33 14 29.8328 14 26Z" fill="#454545" fill-opacity="0.3"/>
<path fill-rule="evenodd" clip-rule="evenodd" d="M38.5 19.9333C34.9863 19.9333 32.0714 22.6163 32.0714 26C32.0714 29.3837 34.9863 32.0667 38.5 32.0667C42.0137 32.0667 44.9286 29.3837 44.9286 26C44.9286 22.6163 42.0137 19.9333 38.5 19.9333ZM31 26C31 22.1672 34.3212 19 38.5 19C42.6788 19 46 22.1672 46 26C46 29.8328 42.6788 33 38.5 33C34.3212 33 31 29.8328 31 26Z" fill="#454545" fill-opacity="0.3"/>
<path d="M28 26.5C28 30.0899 25.0899 33 21.5 33C17.9101 33 15 30.0899 15 26.5C15 22.9101 17.9101 20 21.5 20C25.0899 20 28 22.9101 28 26.5Z" fill="white"/>
<path d="M27 27C27 29.7614 24.7614 32 22 32C19.2386 32 17 29.7614 17 27C17 24.2386 19.2386 22 22 22C24.7614 22 27 24.2386 27 27Z" fill="#454545"/>
<path d="M45 26.5C45 30.0899 42.0899 33 38.5 33C34.9101 33 32 30.0899 32 26.5C32 22.9101 34.9101 20 38.5 20C42.0899 20 45 22.9101 45 26.5Z" fill="white"/>
<path d="M44 27C44 29.7614 41.7614 32 39 32C36.2386 32 34 29.7614 34 27C34 24.2386 36.2386 22 39 22C41.7614 22 44 24.2386 44 27Z" fill="#454545"/>
<path fill-rule="evenodd" clip-rule="evenodd" d="M25.3556 48.7202C24.9716 49.4129 24.1804 49.7649 23.4472 49.4653L23.4067 49.4487C22.6415 49.1361 22.2679 48.2338 22.6465 47.499C22.7136 47.3689 22.8528 47.1173 23.0798 46.7943C23.3814 46.3651 23.8436 45.8023 24.5014 45.2408C25.8368 44.1005 27.9431 43 31 43C34.0569 43 36.1632 44.1005 37.4986 45.2408C38.1564 45.8023 38.6186 46.3651 38.9202 46.7943C39.0718 47.0101 39.2053 47.2339 39.3281 47.4627C39.7304 48.2119 39.34 49.1437 38.5528 49.4653C37.8196 49.7649 37.0284 49.4129 36.6444 48.7202C36.5714 48.5887 36.4926 48.46 36.4052 48.3356C36.2132 48.0624 35.9078 47.6888 35.4688 47.314C34.6108 46.5814 33.2074 45.8092 31 45.8092C28.7926 45.8092 27.3892 46.5814 26.5312 47.314C26.0922 47.6888 25.7868 48.0624 25.5948 48.3356C25.5074 48.46 25.4286 48.5887 25.3556 48.7202Z" fill="#454545"/>
<path fill-rule="evenodd" clip-rule="evenodd" d="M19.2076 15.8286C17.2574 16.4813 15.8768 17.4872 15.3214 18.1555C14.7919 18.7927 13.8461 18.8799 13.209 18.3504C12.5719 17.8209 12.4846 16.8752 13.0141 16.2381C14.0161 15.0324 15.9276 13.7629 18.2553 12.9837C20.6215 12.1917 23.5598 11.857 26.6466 12.6988C27.4459 12.9168 27.9171 13.7414 27.6991 14.5406C27.4811 15.3398 26.6565 15.8111 25.8573 15.5931C23.4441 14.935 21.1191 15.1887 19.2076 15.8286Z" fill="#454545"/>
<path fill-rule="evenodd" clip-rule="evenodd" d="M41.9218 15.8286C43.872 16.4813 45.2526 17.4872 45.808 18.1555C46.3375 18.7927 47.2833 18.8799 47.9204 18.3504C48.5575 17.8209 48.6448 16.8752 48.1153 16.2381C47.1132 15.0324 45.2018 13.7629 42.8741 12.9837C40.5079 12.1917 37.5695 11.857 34.4828 12.6988C33.6835 12.9168 33.2123 13.7414 33.4303 14.5406C33.6483 15.3398 34.4729 15.8111 35.2721 15.5931C37.6853 14.935 40.0103 15.1887 41.9218 15.8286Z" fill="#454545"/>
<path d="M17.2052 28.1321C16.7061 28.1321 15.9998 29 16 29.5C16.0006 30.9461 16.6679 30.4217 18.2052 32.6322C19.435 34.4007 21.9881 33.0624 22.9999 32.9996C22.7249 32.55 22.2052 33.1321 21.7052 32.1321C21.258 31.2377 20.7922 31.6078 19.7052 31.3459C18.6183 31.0839 18.2052 30.1321 18.2052 29.6321C18.2052 28.5141 17.7044 28.1322 17.2052 28.1321Z" fill="#BAF8FC"/>
<path d="M43.7948 28.1321C44.2939 28.1321 45.0002 29 45 29.5C44.9994 30.9461 44.3321 30.4217 42.7948 32.6322C41.565 34.4007 39.0119 33.0624 38.0001 32.9996C38.2751 32.55 38.7948 33.1321 39.2948 32.1321C39.742 31.2377 40.2078 31.6078 41.2948 31.3459C42.3817 31.0839 42.7948 30.1321 42.7948 29.6321C42.7948 28.5141 43.2956 28.1322 43.7948 28.1321Z" fill="#BAF8FC"/>
<circle cx="21.5" cy="25.5" r="1.5" fill="white"/>
<circle cx="38.5" cy="25.5" r="1.5" fill="white"/>
<circle cx="18.5" cy="26.5" r="0.5" fill="white"/>
<circle cx="35.5" cy="26.5" r="0.5" fill="white"/>
<path d="M23.4999 35.5C22.6999 33.9 24.4999 32.1667 25.4999 31.5C25.8333 32.3333 26.5 34.3 26.5 35.5C26.5 37 24.4999 37.5 23.4999 35.5Z" fill="#BAF8FC"/>
</svg>
