<svg width="61" height="61" viewBox="0 0 61 61" fill="none" xmlns="http://www.w3.org/2000/svg">
<path d="M61 30.5C61 47.3447 47.3447 61 30.5 61C13.6553 61 0 47.3447 0 30.5C0 13.6553 13.6553 0 30.5 0C47.3447 0 61 13.6553 61 30.5Z" fill="#FFB480"/>
<path fill-rule="evenodd" clip-rule="evenodd" d="M27.4885 4.81398C27.5913 5.63601 27.0082 6.3857 26.1861 6.48845C22.5929 6.93761 17.5111 9.61038 14.0607 13.0607C13.475 13.6465 12.5252 13.6465 11.9394 13.0607C11.3536 12.4749 11.3536 11.5252 11.9394 10.9394C15.7408 7.13801 21.4073 4.06246 25.814 3.51162C26.6361 3.40887 27.3858 3.99195 27.4885 4.81398ZM10.9001 15.3C11.5628 15.7971 11.6971 16.7373 11.2001 17.4L9.70009 19.4C9.20303 20.0628 8.26283 20.1971 7.60009 19.7C6.93735 19.203 6.80303 18.2628 7.30009 17.6L8.80009 15.6C9.29714 14.9373 10.2373 14.803 10.9001 15.3Z" fill="white"/>
<path d="M19 41C19 43.7614 16.7614 46 14 46C11.2386 46 9 43.7614 9 41C9 38.2386 11.2386 36 14 36C16.7614 36 19 38.2386 19 41Z" fill="#FF8B80"/>
<path d="M52 41C52 43.7614 49.7614 46 47 46C44.2386 46 42 43.7614 42 41C42 38.2386 44.2386 36 47 36C49.7614 36 52 38.2386 52 41Z" fill="#FF8B80"/>
<path d="M20 46.5C20 45.6716 20.6716 45 21.5 45H40.5C41.3284 45 42 45.6716 42 46.5C42 47.3284 41.3284 48 40.5 48H21.5C20.6716 48 20 47.3284 20 46.5Z" fill="#454545"/>
<path d="M28 28.5C28 32.366 25.0899 35.5 21.5 35.5C17.9101 35.5 15 32.366 15 28.5C15 24.634 17.9101 21.5 21.5 21.5C25.0899 21.5 28 24.634 28 28.5Z" fill="white"/>
<path fill-rule="evenodd" clip-rule="evenodd" d="M21.5 22C18.2205 22 15.5 24.8746 15.5 28.5C15.5 32.1254 18.2205 35 21.5 35C24.7795 35 27.5 32.1254 27.5 28.5C27.5 24.8746 24.7795 22 21.5 22ZM14.5 28.5C14.5 24.3934 17.5998 21 21.5 21C25.4002 21 28.5 24.3934 28.5 28.5C28.5 32.6066 25.4002 36 21.5 36C17.5998 36 14.5 32.6066 14.5 28.5Z" fill="#454545" fill-opacity="0.3"/>
<path d="M45 28.5C45 32.366 42.0899 35.5 38.5 35.5C34.9101 35.5 32 32.366 32 28.5C32 24.634 34.9101 21.5 38.5 21.5C42.0899 21.5 45 24.634 45 28.5Z" fill="white"/>
<path fill-rule="evenodd" clip-rule="evenodd" d="M38.5 22C35.2205 22 32.5 24.8746 32.5 28.5C32.5 32.1254 35.2205 35 38.5 35C41.7795 35 44.5 32.1254 44.5 28.5C44.5 24.8746 41.7795 22 38.5 22ZM31.5 28.5C31.5 24.3934 34.5998 21 38.5 21C42.4002 21 45.5 24.3934 45.5 28.5C45.5 32.6066 42.4002 36 38.5 36C34.5998 36 31.5 32.6066 31.5 28.5Z" fill="#454545" fill-opacity="0.3"/>
<path d="M28 28.5C28 32.366 25.0899 35.5 21.5 35.5C17.9101 35.5 15 32.366 15 28.5C15 24.634 17.9101 21.5 21.5 21.5C25.0899 21.5 28 24.634 28 28.5Z" fill="white"/>
<path d="M24 24.5C24 26.1569 22.6569 27.5 21 27.5C19.3431 27.5 18 26.1569 18 24.5C18 22.8431 19.3431 21.5 21 21.5C22.6569 21.5 24 22.8431 24 24.5Z" fill="#454545"/>
<path d="M45 28.5C45 32.366 42.0899 35.5 38.5 35.5C34.9101 35.5 32 32.366 32 28.5C32 24.634 34.9101 21.5 38.5 21.5C42.0899 21.5 45 24.634 45 28.5Z" fill="white"/>
<path d="M41 24.5C41 26.1569 39.6569 27.5 38 27.5C36.3431 27.5 35 26.1569 35 24.5C35 22.8431 36.3431 21.5 38 21.5C39.6569 21.5 41 22.8431 41 24.5Z" fill="#454545"/>
<path fill-rule="evenodd" clip-rule="evenodd" d="M19.2076 17.8286C17.2574 18.4813 15.8768 19.4872 15.3214 20.1555C14.7919 20.7927 13.8461 20.8799 13.209 20.3504C12.5719 19.8209 12.4846 18.8752 13.0141 18.2381C14.0161 17.0324 15.9276 15.7629 18.2553 14.9837C20.6215 14.1917 23.5598 13.857 26.6466 14.6988C27.4459 14.9168 27.9171 15.7414 27.6991 16.5406C27.4811 17.3398 26.6565 17.8111 25.8573 17.5931C23.4441 16.935 21.1191 17.1887 19.2076 17.8286Z" fill="#454545"/>
<path fill-rule="evenodd" clip-rule="evenodd" d="M41.9218 17.8286C43.872 18.4813 45.2526 19.4872 45.808 20.1555C46.3375 20.7927 47.2833 20.8799 47.9204 20.3504C48.5575 19.8209 48.6448 18.8752 48.1153 18.2381C47.1132 17.0324 45.2018 15.7629 42.8741 14.9837C40.5079 14.1917 37.5695 13.857 34.4828 14.6988C33.6835 14.9168 33.2123 15.7414 33.4303 16.5406C33.6483 17.3398 34.4729 17.8111 35.2721 17.5931C37.6853 16.935 40.0103 17.1887 41.9218 17.8286Z" fill="#454545"/>
</svg>
