<svg width="61" height="61" viewBox="0 0 61 61" fill="none" xmlns="http://www.w3.org/2000/svg">
<circle cx="30.5" cy="30.5" r="30.5" fill="#FFB480"/>
<path fill-rule="evenodd" clip-rule="evenodd" d="M27.4885 4.81398C27.5913 5.63601 27.0082 6.3857 26.1861 6.48845C22.5929 6.93761 17.5111 9.61038 14.0607 13.0607C13.475 13.6465 12.5252 13.6465 11.9394 13.0607C11.3536 12.4749 11.3536 11.5252 11.9394 10.9394C15.7408 7.13801 21.4073 4.06246 25.814 3.51162C26.6361 3.40887 27.3858 3.99195 27.4885 4.81398ZM10.9001 15.3C11.5628 15.7971 11.6971 16.7373 11.2001 17.4L9.70009 19.4C9.20303 20.0628 8.26283 20.1971 7.60009 19.7C6.93735 19.203 6.80303 18.2628 7.30009 17.6L8.80009 15.6C9.29714 14.9373 10.2373 14.803 10.9001 15.3Z" fill="white"/>
<path fill-rule="evenodd" clip-rule="evenodd" d="M15.4285 21.6826C13.4784 22.3353 12.0977 23.3412 11.5423 24.0095C11.0128 24.6467 10.0671 24.7339 9.42995 24.2044C8.79283 23.6749 8.70559 22.7292 9.23508 22.0921C10.2371 20.8864 12.1486 19.6169 14.4762 18.8377C16.8424 18.0457 19.7808 17.711 22.8676 18.5528C23.6668 18.7708 24.138 19.5954 23.92 20.3946C23.7021 21.1939 22.8775 21.6651 22.0782 21.4471C19.6651 20.789 17.3401 21.0427 15.4285 21.6826Z" fill="#454545"/>
<path fill-rule="evenodd" clip-rule="evenodd" d="M45.1152 21.6826C47.0653 22.3353 48.446 23.3412 49.0014 24.0095C49.5309 24.6467 50.4766 24.7339 51.1137 24.2044C51.7509 23.6749 51.8381 22.7292 51.3086 22.0921C50.3066 20.8864 48.3951 19.6169 46.0675 18.8377C43.7013 18.0457 40.7629 17.711 37.6761 18.5528C36.8769 18.7708 36.4057 19.5954 36.6237 20.3946C36.8416 21.1939 37.6662 21.6651 38.4655 21.4471C40.8786 20.789 43.2036 21.0427 45.1152 21.6826Z" fill="#454545"/>
<path fill-rule="evenodd" clip-rule="evenodd" d="M20.0608 30.7879C18.5631 31.1135 17.5535 31.6806 17.0891 32.1667C16.5008 32.7826 15.5533 32.8305 14.9729 32.2736C14.3924 31.7167 14.3989 30.7659 14.9873 30.15C16.064 29.0228 17.7591 28.2481 19.5891 27.8503C21.4608 27.4434 23.6492 27.3896 25.87 27.8632C26.6679 28.0334 27.1403 28.8302 26.925 29.6429C26.7098 30.4557 25.8884 30.9766 25.0904 30.8064C23.2788 30.42 21.5168 30.4713 20.0608 30.7879Z" fill="#454545"/>
<path fill-rule="evenodd" clip-rule="evenodd" d="M40.4509 30.8278C41.9486 31.1534 42.9582 31.7205 43.4226 32.2066C44.011 32.8225 44.9584 32.8704 45.5389 32.3135C46.1193 31.7566 46.1128 30.8058 45.5245 30.1899C44.4478 29.0627 42.7526 28.2881 40.9226 27.8902C39.0509 27.4833 36.8625 27.4295 34.6418 27.9031C33.8438 28.0733 33.3714 28.8701 33.5867 29.6828C33.802 30.4956 34.6233 31.0165 35.4213 30.8463C37.2329 30.4599 38.9949 30.5113 40.4509 30.8278Z" fill="#454545"/>
<path fill-rule="evenodd" clip-rule="evenodd" d="M25.3745 44.3981C24.9925 43.663 24.1576 43.2937 23.3987 43.6258C22.6397 43.9578 22.2716 44.8521 22.6246 45.6016C22.6393 45.6329 22.6542 45.6642 22.6692 45.6954C22.736 45.8343 22.8749 46.103 23.1013 46.448C23.402 46.9063 23.863 47.5073 24.519 48.107C25.8508 49.3247 27.9513 50.5 30.9999 50.5C34.0485 50.5 36.149 49.3247 37.4808 48.107C38.1367 47.5073 38.5977 46.9063 38.8985 46.448C39.0773 46.1755 39.2308 45.8909 39.3714 45.5999C39.7317 44.8539 39.3601 43.9578 38.6011 43.6258C37.8421 43.2937 37.0072 43.663 36.6253 44.3981C36.5535 44.5362 36.4761 44.6713 36.3903 44.802C36.1989 45.0937 35.8943 45.4927 35.4565 45.893C34.6008 46.6753 33.2013 47.5 30.9999 47.5C28.7985 47.5 27.399 46.6753 26.5433 45.893C26.1055 45.4927 25.8008 45.0937 25.6094 44.802C25.5236 44.6713 25.4462 44.5362 25.3745 44.3981Z" fill="#454545"/>
<circle cx="14" cy="41" r="5" fill="#FF8B80"/>
<circle cx="47" cy="41" r="5" fill="#FF8B80"/>
</svg>
